IKResults
version=1
nRows=5
nColumns=40
inDegrees=yes

Units are S.I. units (second, meters, Newtons, ...)
Angles are in degrees.

endheader
time	pelvis_tilt	pelvis_list	pelvis_rotation	pelvis_tx	pelvis_ty	pelvis_tz	hip_flexion_r	hip_adduction_r	hip_rotation_r	knee_angle_r	knee_angle_r_beta	ankle_angle_r	subtalar_angle_r	mtp_angle_r	hip_flexion_l	hip_adduction_l	hip_rotation_l	knee_angle_l	knee_angle_l_beta	ankle_angle_l	subtalar_angle_l	mtp_angle_l	lumbar_extension	lumbar_bending	lumbar_rotation	arm_flex_r	arm_add_r	arm_rot_r	elbow_flex_r	pro_sup_r	wrist_flex_r	wrist_dev_r	arm_flex_l	arm_add_l	arm_rot_l	elbow_flex_l	pro_sup_l	wrist_flex_l	wrist_dev_l
      0.23000000	     12.38900022	     -6.43571220	      6.15027431	     -0.36495096	      0.91123877	      1.41938146	     15.81133090	      5.27167369	    -19.15494545	    -29.58809321	     -0.51640965	     -1.44167110	     -6.95794922	     -6.29659781	    -26.02604085	      8.09153751	      0.53115242	    -40.00430770	     -0.69820688	     -9.33979846	     11.76600637	     -5.41418432	    -22.45293708	      8.08054812	     -9.04265773	    -14.28603325	    -12.28547230	      1.89310226	     23.61407514	     89.95437384	      0.00000000	      0.00000000	      9.46410316	     12.18465742	      5.37346570	     62.71654179	     89.95437384	      0.00000000	      0.00000000
      0.24000000	     12.87582453	     -6.84686833	      6.28666175	     -0.34917299	      0.91435890	      1.42049039	     14.26620682	      6.03742745	    -18.97729965	    -29.68545291	     -0.51810889	     -0.36403757	     -6.85882586	     -6.07474412	    -24.89710948	      8.65467362	     -0.02395593	    -43.04240843	     -0.75123175	    -13.04752459	     12.59066291	     -4.95782816	    -22.80423146	      8.62404371	     -8.54284240	    -13.75744111	    -12.36447290	      1.80041619	     23.62733110	     89.95437384	      0.00000000	      0.00000000	      8.92572952	     11.71122469	      5.19723625	     61.78858773	     89.95437384	      0.00000000	      0.00000000
      0.25000000	     13.27584367	     -7.35188337	      6.57954588	     -0.33380335	      0.91736403	      1.42144199	     12.67178031	      6.83312542	    -19.14328950	    -29.44562734	     -0.51392315	      0.25763971	     -6.36084254	     -5.72157065	    -23.39777364	      9.35891393	     -0.67419036	    -46.17760553	     -0.80595126	    -16.78873827	     13.25042934	     -4.56141925	    -23.04348179	      9.29992238	     -8.10038353	    -13.23263279	    -12.43124719	      1.58949308	     23.75592564	     89.95437384	      0.00000000	      0.00000000	      8.43636354	     11.21768854	      4.94477529	     60.66036130	     89.95437384	      0.00000000	      0.00000000
      0.26000000	     13.58656611	     -7.45148043	      6.60384121	     -0.31926990	      0.92036292	      1.42278086	     11.09546029	      7.23349810	    -19.24254385	    -29.01789426	     -0.50645780	      1.10865577	     -5.82407716	     -5.59573464	    -21.75850059	      9.45267638	     -1.36086186	    -49.22085692	     -0.85906601	    -18.70410912	     13.92904111	     -4.31949847	    -23.33973363	      9.41009905	     -7.47414535	    -12.60449345	    -12.42658913	      1.51484613	     23.91769840	     89.95437384	      0.00000000	      0.00000000	      8.18246346	     10.79460178	      4.66805284	     59.20599156	     89.95437384	      0.00000000	      0.00000000
      0.27000000	     13.66004418	     -7.63509034	      6.85799550	     -0.30508432	      0.92290326	      1.42356544	      9.72623563	      7.61658113	    -19.67100571	    -28.44709110	     -0.49649540	      1.95851982	     -4.93472957	     -5.45438186	    -19.76655107	      9.56929124	     -2.29249537	    -52.13870990	     -0.90999216	    -18.02217009	     14.81405747	     -4.09756633	    -23.37468804	      9.69082643	     -7.03359824	    -12.02708332	    -12.44728335	      1.25710083	     24.29132804	     89.95437384	      0.00000000	      0.00000000	      7.90466389	     10.41109164	      4.19583010	     57.66157459	     89.95437384	      0.00000000	      0.00000000
